999
dxflib 2.0.4.8
  0
SECTION
  2
HEADER
  9
$ACADVER
  1
AC1015
  9
$HANDSEED
  5
FFFF
  9
$DIMASZ
 40
2.5
  9
$DIMGAP
 40
0.625
  9
$DIMEXO
 40
0.625
  9
$INSUNITS
 70
4
  9
$DIMTXT
 40
2.5
  9
$PLIMMAX
 10
210.0
 20
297.0
  9
$PLIMMIN
 10
0.0
 20
0.0
  9
$DIMEXE
 40
1.25
  0
ENDSEC
  0
SECTION
  2
TABLES
  0
TABLE
  2
VPORT
  5
8
100
AcDbSymbolTable
 70
1
  0
VPORT
  5
30
100
AcDbSymbolTableRecord
100
AcDbViewportTableRecord
  2
*Active
 70
0
 10
0.0
 20
0.0
 11
1.0
 21
1.0
 12
286.3055555555554861
 22
148.5
 13
0.0
 23
0.0
 14
10.0
 24
10.0
 15
10.0
 25
10.0
 16
0.0
 26
0.0
 36
1.0
 17
0.0
 27
0.0
 37
0.0
 40
297.0
 41
1.92798353909465
 42
50.0
 43
0.0
 44
0.0
 50
0.0
 51
0.0
 71
0
 72
100
 73
1
 74
3
 75
1
 76
1
 77
0
 78
0
281
0
 65
1
110
0.0
120
0.0
130
0.0
111
1.0
121
0.0
131
0.0
112
0.0
122
1.0
132
0.0
 79
0
146
0.0
  0
ENDTAB
  0
TABLE
  2
LTYPE
  5
5
100
AcDbSymbolTable
 70
21
  0
LTYPE
  5
14
100
AcDbSymbolTableRecord
100
AcDbLinetypeTableRecord
  2
ByBlock
 70
0
  3

 72
65
 73
0
 40
0.0
  0
LTYPE
  5
15
100
AcDbSymbolTableRecord
100
AcDbLinetypeTableRecord
  2
ByLayer
 70
0
  3

 72
65
 73
0
 40
0.0
  0
LTYPE
  5
16
100
AcDbSymbolTableRecord
100
AcDbLinetypeTableRecord
  2
CONTINUOUS
 70
0
  3
Solid line
 72
65
 73
0
 40
0.0
  0
LTYPE
  5
31
100
AcDbSymbolTableRecord
100
AcDbLinetypeTableRecord
  2
DOT
 70
0
  3
Dot . . . . . . . . . . . . . . . . . . . . . .
 72
65
 73
2
 40
6.3499999999999996
 49
0.0
 74
0
 49
-6.3499999999999996
 74
0
  0
LTYPE
  5
32
100
AcDbSymbolTableRecord
100
AcDbLinetypeTableRecord
  2
DOT2
 70
0
  3
Dot (.5x) .....................................
 72
65
 73
2
 40
3.1749999999999998
 49
0.0
 74
0
 49
-3.1749999999999998
 74
0
  0
LTYPE
  5
33
100
AcDbSymbolTableRecord
100
AcDbLinetypeTableRecord
  2
DOTX2
 70
0
  3
Dot (2x) .  .  .  .  .  .  .  .  .  .  .  .  .
 72
65
 73
2
 40
12.6999999999999993
 49
0.0
 74
0
 49
-12.6999999999999993
 74
0
  0
LTYPE
  5
34
100
AcDbSymbolTableRecord
100
AcDbLinetypeTableRecord
  2
DASHED
 70
0
  3
Dashed __ __ __ __ __ __ __ __ __ __ __ __ __ _
 72
65
 73
2
 40
19.0500000000000007
 49
12.6999999999999993
 74
0
 49
-6.3499999999999996
 74
0
  0
LTYPE
  5
35
100
AcDbSymbolTableRecord
100
AcDbLinetypeTableRecord
  2
DASHED2
 70
0
  3
Dashed (.5x) _ _ _ _ _ _ _ _ _ _ _ _ _ _ _ _ _
 72
65
 73
2
 40
9.5250000000000004
 49
6.3499999999999996
 74
0
 49
-3.1749999999999998
 74
0
  0
LTYPE
  5
36
100
AcDbSymbolTableRecord
100
AcDbLinetypeTableRecord
  2
DASHEDX2
 70
0
  3
Dashed (2x) ____  ____  ____  ____  ____  ___
 72
65
 73
2
 40
38.1000000000000014
 49
25.3999999999999986
 74
0
 49
-12.6999999999999993
 74
0
  0
LTYPE
  5
37
100
AcDbSymbolTableRecord
100
AcDbLinetypeTableRecord
  2
DASHDOT
 70
0
  3
Dash dot __ . __ . __ . __ . __ . __ . __ . __
 72
65
 73
4
 40
25.3999999999999986
 49
12.6999999999999993
 74
0
 49
-6.3499999999999996
 74
0
 49
0.0
 74
0
 49
-6.3499999999999996
 74
0
  0
LTYPE
  5
38
100
AcDbSymbolTableRecord
100
AcDbLinetypeTableRecord
  2
DASHDOT2
 70
0
  3
Dash dot (.5x) _._._._._._._._._._._._._._._.
 72
65
 73
4
 40
12.6999999999999993
 49
6.3499999999999996
 74
0
 49
-3.1749999999999998
 74
0
 49
0.0
 74
0
 49
-3.1749999999999998
 74
0
  0
LTYPE
  5
39
100
AcDbSymbolTableRecord
100
AcDbLinetypeTableRecord
  2
DASHDOTX2
 70
0
  3
Dash dot (2x) ____  .  ____  .  ____  .  ___
 72
65
 73
4
 40
50.7999999999999972
 49
25.3999999999999986
 74
0
 49
-12.6999999999999993
 74
0
 49
0.0
 74
0
 49
-12.6999999999999993
 74
0
  0
LTYPE
  5
3A
100
AcDbSymbolTableRecord
100
AcDbLinetypeTableRecord
  2
DIVIDE
 70
0
  3
Divide ____ . . ____ . . ____ . . ____ . . ____
 72
65
 73
6
 40
31.75
 49
12.6999999999999993
 74
0
 49
-6.3499999999999996
 74
0
 49
0.0
 74
0
 49
-6.3499999999999996
 74
0
 49
0.0
 74
0
 49
-6.3499999999999996
 74
0
  0
LTYPE
  5
3B
100
AcDbSymbolTableRecord
100
AcDbLinetypeTableRecord
  2
DIVIDE2
 70
0
  3
Divide (.5x) __..__..__..__..__..__..__..__.._
 72
65
 73
6
 40
15.875
 49
6.3499999999999996
 74
0
 49
-3.1749999999999998
 74
0
 49
0.0
 74
0
 49
-3.1749999999999998
 74
0
 49
0.0
 74
0
 49
-3.1749999999999998
 74
0
  0
LTYPE
  5
3C
100
AcDbSymbolTableRecord
100
AcDbLinetypeTableRecord
  2
DIVIDEX2
 70
0
  3
Divide (2x) ________  .  .  ________  .  .  _
 72
65
 73
6
 40
63.5
 49
25.3999999999999986
 74
0
 49
-12.6999999999999993
 74
0
 49
0.0
 74
0
 49
-12.6999999999999993
 74
0
 49
0.0
 74
0
 49
-12.6999999999999993
 74
0
  0
LTYPE
  5
3D
100
AcDbSymbolTableRecord
100
AcDbLinetypeTableRecord
  2
CENTER
 70
0
  3
Center ____ _ ____ _ ____ _ ____ _ ____ _ ____
 72
65
 73
4
 40
50.7999999999999972
 49
31.75
 74
0
 49
-6.3499999999999996
 74
0
 49
6.3499999999999996
 74
0
 49
-6.3499999999999996
 74
0
  0
LTYPE
  5
3E
100
AcDbSymbolTableRecord
100
AcDbLinetypeTableRecord
  2
CENTER2
 70
0
  3
Center (.5x) ___ _ ___ _ ___ _ ___ _ ___ _ ___
 72
65
 73
4
 40
28.5749999999999993
 49
19.0500000000000007
 74
0
 49
-3.1749999999999998
 74
0
 49
3.1749999999999998
 74
0
 49
-3.1749999999999998
 74
0
  0
LTYPE
  5
3F
100
AcDbSymbolTableRecord
100
AcDbLinetypeTableRecord
  2
CENTERX2
 70
0
  3
Center (2x) ________  __  ________  __  _____
 72
65
 73
4
 40
101.5999999999999943
 49
63.5
 74
0
 49
-12.6999999999999993
 74
0
 49
12.6999999999999993
 74
0
 49
-12.6999999999999993
 74
0
  0
LTYPE
  5
40
100
AcDbSymbolTableRecord
100
AcDbLinetypeTableRecord
  2
BORDER
 70
0
  3
Border __ __ . __ __ . __ __ . __ __ . __ __ .
 72
65
 73
6
 40
44.4500000000000028
 49
12.6999999999999993
 74
0
 49
-6.3499999999999996
 74
0
 49
12.6999999999999993
 74
0
 49
-6.3499999999999996
 74
0
 49
0.0
 74
0
 49
-6.3499999999999996
 74
0
  0
LTYPE
  5
41
100
AcDbSymbolTableRecord
100
AcDbLinetypeTableRecord
  2
BORDER2
 70
0
  3
Border (.5x) __.__.__.__.__.__.__.__.__.__.__.
 72
65
 73
6
 40
22.2250000000000014
 49
6.3499999999999996
 74
0
 49
-3.1749999999999998
 74
0
 49
6.3499999999999996
 74
0
 49
-3.1749999999999998
 74
0
 49
0.0
 74
0
 49
-3.1749999999999998
 74
0
  0
LTYPE
  5
42
100
AcDbSymbolTableRecord
100
AcDbLinetypeTableRecord
  2
BORDERX2
 70
0
  3
Border (2x) ____  ____  .  ____  ____  .  ___
 72
65
 73
6
 40
88.9000000000000057
 49
25.3999999999999986
 74
0
 49
-12.6999999999999993
 74
0
 49
25.3999999999999986
 74
0
 49
-12.6999999999999993
 74
0
 49
0.0
 74
0
 49
-12.6999999999999993
 74
0
  0
ENDTAB
  0
TABLE
  2
LAYER
  5
2
100
AcDbSymbolTable
 70
1
  0
LAYER
  5
10
100
AcDbSymbolTableRecord
100
AcDbLayerTableRecord
  2
0
 70
0
 62
7
  6
CONTINUOUS
370
0
390
F
  0
ENDTAB
  0
TABLE
  2
STYLE
  5
3
100
AcDbSymbolTable
 70
1
  0
STYLE
  5
11
100
AcDbSymbolTableRecord
100
AcDbTextStyleTableRecord
  2
Standard
 70
0
 40
0.0
 41
0.75
 50
0.0
 71
0
 42
2.5
  3
txt
  4

  0
ENDTAB
  0
TABLE
  2
VIEW
  5
6
100
AcDbSymbolTable
 70
0
  0
ENDTAB
  0
TABLE
  2
UCS
  5
7
100
AcDbSymbolTable
 70
0
  0
ENDTAB
  0
TABLE
  2
APPID
  5
9
100
AcDbSymbolTable
 70
1
  0
APPID
  5
12
100
AcDbSymbolTableRecord
100
AcDbRegAppTableRecord
  2
ACAD
 70
0
  0
ENDTAB
  0
TABLE
  2
DIMSTYLE
  5
A
100
AcDbSymbolTable
 70
1
100
AcDbDimStyleTable
 71
0
  0
DIMSTYLE
105
27
100
AcDbSymbolTableRecord
100
AcDbDimStyleTableRecord
  2
Standard
 41
2.5
 42
0.625
 43
3.75
 44
1.25
 70
0
 73
0
 74
0
 77
1
 78
8
140
2.5
141
2.5
143
0.03937007874016
147
0.625
171
3
172
1
271
2
272
2
274
3
278
44
283
0
284
8
340
11
  0
ENDTAB
  0
TABLE
  2
BLOCK_RECORD
  5
1
100
AcDbSymbolTable
 70
1
  0
BLOCK_RECORD
  5
1F
100
AcDbSymbolTableRecord
100
AcDbBlockTableRecord
  2
*Model_Space
340
22
  0
BLOCK_RECORD
  5
1B
100
AcDbSymbolTableRecord
100
AcDbBlockTableRecord
  2
*Paper_Space
340
1E
  0
BLOCK_RECORD
  5
23
100
AcDbSymbolTableRecord
100
AcDbBlockTableRecord
  2
*Paper_Space0
340
26
  0
ENDTAB
  0
ENDSEC
  0
SECTION
  2
BLOCKS
  0
BLOCK
  5
20
100
AcDbEntity
  8
0
100
AcDbBlockBegin
  2
*Model_Space
 70
0
 10
0.0
 20
0.0
 30
0.0
  3
*Model_Space
  1

  0
ENDBLK
  5
21
100
AcDbEntity
  8
0
100
AcDbBlockEnd
  0
BLOCK
  5
1C
100
AcDbEntity
 67
1
  8
0
100
AcDbBlockBegin
  2
*Paper_Space
 70
0
 10
0.0
 20
0.0
 30
0.0
  3
*Paper_Space
  1

  0
ENDBLK
  5
1D
100
AcDbEntity
 67
1
  8
0
100
AcDbBlockEnd
  0
BLOCK
  5
24
100
AcDbEntity
  8
0
100
AcDbBlockBegin
  2
*Paper_Space0
 70
0
 10
0.0
 20
0.0
 30
0.0
  3
*Paper_Space0
  1

  0
ENDBLK
  5
25
100
AcDbEntity
  8
0
100
AcDbBlockEnd
  0
ENDSEC
  0
SECTION
  2
ENTITIES
  0
LEADER
  5
43
  8
0
 62
256
370
70
  6
ByLayer
100
AcDbEntity
100
AcDbLeader
  3
Standard
 71
1
 72
0
 73
3
 74
0
 75
0
 40
1.0
 41
10.0
 76
2
 10
0.0
 20
100.0
 10
0.0
 20
0.0
  0
LEADER
  5
44
  8
0
 62
256
370
70
  6
ByLayer
100
AcDbEntity
100
AcDbLeader
  3
Standard
 71
1
 72
0
 73
3
 74
0
 75
0
 40
1.0
 41
10.0
 76
2
 10
100.0
 20
0.0
 10
0.0
 20
0.0
  0
SPLINE
  5
45
  8
0
 62
256
370
70
  6
ByLayer
100
AcDbEntity
100
AcDbSpline
 70
8
 71
3
 72
19
 73
15
 74
0
 40
0.0
 40
0.0
 40
0.0
 40
0.0
 40
0.0833333333333333
 40
0.1666666666666667
 40
0.25
 40
0.3333333333333333
 40
0.4166666666666667
 40
0.5
 40
0.5833333333333334
 40
0.6666666666666666
 40
0.75
 40
0.8333333333333334
 40
0.9166666666666666
 40
1.0
 40
1.0
 40
1.0
 40
1.0
 10
4.0
 20
97.5
 30
0.0
 10
6.5
 20
78.5
 30
0.0
 10
11.75
 20
58.5
 30
0.0
 10
17.75
 20
41.0
 30
0.0
 10
23.25
 20
39.75
 30
0.0
 10
28.5
 20
42.75
 30
0.0
 10
29.6550400000000138
 20
45.7932800000000171
 30
0.0
 10
34.4064000000000121
 20
47.6774400000000185
 30
0.0
 10
37.847040000000014
 20
47.267840000000021
 30
0.0
 10
41.4515200000000164
 20
44.6464000000000212
 30
0.0
 10
44.400640000000017
 20
40.7961600000000146
 30
0.0
 10
54.4000000000001265
 20
25.9840000000000586
 30
0.0
 10
69.1200000000001609
 20
12.0320000000000267
 30
0.0
 10
83.8400000000001882
 20
6.7840000000000158
 30
0.0
 10
98.94400000000023
 20
3.0720000000000072
 30
0.0
  0
SPLINE
  5
46
  8
0
 62
256
370
70
  6
ByLayer
100
AcDbEntity
100
AcDbSpline
 70
8
 71
3
 72
15
 73
11
 74
0
 40
0.0
 40
0.0
 40
0.0
 40
0.0
 40
0.125
 40
0.25
 40
0.375
 40
0.5
 40
0.625
 40
0.75
 40
0.875
 40
1.0
 40
1.0
 40
1.0
 40
1.0
 10
13.8000000000000345
 20
97.4000000000002473
 30
0.0
 10
19.4000000000000483
 20
83.4000000000002046
 30
0.0
 10
31.4000000000000767
 20
74.0000000000001847
 30
0.0
 10
39.8000000000000966
 20
66.2000000000001592
 30
0.0
 10
52.2000000000001307
 20
64.400000000000162
 30
0.0
 10
58.8000000000001464
 20
64.2000000000001592
 30
0.0
 10
68.0000000000001705
 20
59.4000000000001478
 30
0.0
 10
80.2000000000002018
 20
42.2000000000001023
 30
0.0
 10
88.200000000000216
 20
33.0000000000000853
 30
0.0
 10
94.8000000000002387
 20
29.6000000000000725
 30
0.0
 10
99.6000000000002501
 20
28.8000000000000718
 30
0.0
  0
SPLINE
  5
47
  8
0
 62
256
370
70
  6
ByLayer
100
AcDbEntity
100
AcDbSpline
 70
8
 71
3
 72
8
 73
4
 74
0
 40
0.0
 40
0.0
 40
0.0
 40
0.0
 40
1.0
 40
1.0
 40
1.0
 40
1.0
 10
46.800000000000118
 20
97.4000000000002473
 30
0.0
 10
62.0000000000001563
 20
82.6000000000002075
 30
0.0
 10
80.4000000000002046
 20
68.6000000000001648
 30
0.0
 10
98.8000000000002387
 20
65.2000000000001592
 30
0.0
  0
LINE
  5
48
100
AcDbEntity
100
AcDbLine
  8
0
 62
256
370
70
  6
ByLayer
 10
17.4603851159552512
 20
44.0737686911630817
 30
0.0
 11
41.7270257443811019
 21
44.045317675221213
 31
0.0
  0
MTEXT
  5
49
100
AcDbEntity
100
AcDbMText
  8
0
 62
256
370
50
  6
ByLayer
 10
-4.6875000000000151
 20
96.2500000000003126
 30
0.0
 40
7.0
 41
100.0
 71
5
 72
0
  1
P
  7
normal
 50
0.0
 73
1
 44
1.0
  0
MTEXT
  5
4A
100
AcDbEntity
100
AcDbMText
  8
0
 62
256
370
50
  6
ByLayer
 10
96.2500000000003126
 20
-6.2500000000000204
 30
0.0
 40
7.0
 41
100.0
 71
5
 72
0
  1
V
  7
normal
 50
0.0
 73
1
 44
1.0
  0
MTEXT
  5
4B
100
AcDbEntity
100
AcDbMText
  8
0
 62
256
370
50
  6
ByLayer
 10
93.4375000000003126
 20
10.6250000000000355
 30
0.0
 40
7.0
 41
100.0
 71
5
 72
0
  1
A'
  7
normal
 50
0.0
 73
1
 44
1.0
  0
MTEXT
  5
4C
100
AcDbEntity
100
AcDbMText
  8
0
 62
256
370
50
  6
ByLayer
 10
47.5000000000001563
 20
45.6250000000001492
 30
0.0
 40
7.0
 41
100.0
 71
5
 72
0
  1
A
  7
normal
 50
0.0
 73
1
 44
1.0
  0
MTEXT
  5
4D
100
AcDbEntity
100
AcDbMText
  8
0
 62
256
370
50
  6
ByLayer
 10
35.3125000000001137
 20
53.4375000000001776
 30
0.0
 40
7.0
 41
100.0
 71
5
 72
0
  1
B
  7
normal
 50
0.0
 73
1
 44
1.0
  0
MTEXT
  5
4E
100
AcDbEntity
100
AcDbMText
  8
0
 62
256
370
50
  6
ByLayer
 10
31.250000000000103
 20
39.0625000000001279
 30
0.0
 40
7.0
 41
100.0
 71
5
 72
0
  1
F
  7
normal
 50
0.0
 73
1
 44
1.0
  0
MTEXT
  5
4F
100
AcDbEntity
100
AcDbMText
  8
0
 62
256
370
50
  6
ByLayer
 10
23.1250000000000746
 20
34.3750000000001137
 30
0.0
 40
7.0
 41
100.0
 71
5
 72
0
  1
C
  7
normal
 50
0.0
 73
1
 44
1.0
  0
MTEXT
  5
50
100
AcDbEntity
100
AcDbMText
  8
0
 62
256
370
50
  6
ByLayer
 10
12.8125000000000426
 20
44.0625000000001421
 30
0.0
 40
7.0
 41
100.0
 71
5
 72
0
  1
D
  7
normal
 50
0.0
 73
1
 44
1.0
  0
MTEXT
  5
51
100
AcDbEntity
100
AcDbMText
  8
0
 62
256
370
50
  6
ByLayer
 10
12.5000000000000409
 20
75.6250000000002416
 30
0.0
 40
7.0
 41
100.0
 71
5
 72
0
  1
D'
  7
normal
 50
0.0
 73
1
 44
1.0
  0
MTEXT
  5
52
100
AcDbEntity
100
AcDbMText
  8
0
 62
256
370
50
  6
ByLayer
 10
82.18750000000027
 20
48.4375000000001563
 30
0.0
 40
7.0
 41
100.0
 71
5
 72
0
  1
T
  7
normal
 50
0.0
 73
1
 44
1.0
  0
MTEXT
  5
53
100
AcDbEntity
100
AcDbMText
  8
0
 62
256
370
50
  6
ByLayer
 10
72.5000000000002416
 20
89.3750000000002984
 30
0.0
 40
7.0
 41
100.0
 71
5
 72
0
  1
T>T
  7
normal
 50
0.0
 73
1
 44
1.0
  0
MTEXT
  5
54
100
AcDbEntity
100
AcDbMText
  8
0
 62
256
370
35
  6
ByLayer
 10
84.6875000000002842
 20
86.5625000000002842
 30
0.0
 40
5.0
 41
100.0
 71
5
 72
0
  1
\U+043a\U+0440
  7
cyrillic_ii
 50
0.0
 73
1
 44
1.0
  0
MTEXT
  5
55
100
AcDbEntity
100
AcDbMText
  8
0
 62
256
370
35
  6
ByLayer
 10
88.1250000000002842
 20
45.3125000000001492
 30
0.0
 40
5.0
 41
100.0
 71
5
 72
0
  1
\U+043a\U+0440
  7
cyrillic_ii
 50
0.0
 73
1
 44
1.0
  0
POINT
  5
56
100
AcDbEntity
100
AcDbPoint
  8
0
 62
256
370
200
  6
ByLayer
 10
89.9708663022437349
 20
5.4085286253414981
 30
0.0
  0
POINT
  5
57
100
AcDbEntity
100
AcDbPoint
  8
0
 62
256
370
200
  6
ByLayer
 10
41.7270257443811019
 20
44.045317675221213
 30
0.0
  0
POINT
  5
58
100
AcDbEntity
100
AcDbPoint
  8
0
 62
256
370
200
  6
ByLayer
 10
29.1470565461023838
 20
44.3573819917922805
 30
0.0
  0
POINT
  5
59
100
AcDbEntity
100
AcDbPoint
  8
0
 62
256
370
200
  6
ByLayer
 10
17.4603851159552512
 20
44.0737686911630817
 30
0.0
  0
POINT
  5
5A
100
AcDbEntity
100
AcDbPoint
  8
0
 62
256
370
200
  6
ByLayer
 10
9.0593417044735638
 20
69.3862253032811367
 30
0.0
  0
POINT
  5
5B
100
AcDbEntity
100
AcDbPoint
  8
0
 62
256
370
200
  6
ByLayer
 10
22.6356017528300342
 20
40.397868297125477
 30
0.0
  0
POINT
  5
5C
100
AcDbEntity
100
AcDbPoint
  8
0
 62
256
370
200
  6
ByLayer
 10
35.2122061109689
 20
47.4087121163658765
 30
0.0
  0
MTEXT
  5
5D
100
AcDbEntity
100
AcDbMText
  8
0
 62
256
370
50
  6
ByLayer
 10
3.7500000000000155
 20
5.0000000000000204
 30
0.0
 40
7.0
 41
100.0
 71
5
 72
0
  1
0
  7
normal
 50
0.0
 73
1
 44
1.0
  0
ENDSEC
  0
SECTION
  2
OBJECTS
  0
DICTIONARY
  5
C
100
AcDbDictionary
280
0
281
1
  3
ACAD_GROUP
350
D
  3
ACAD_LAYOUT
350
1A
  3
ACAD_MLINESTYLE
350
17
  3
ACAD_PLOTSETTINGS
350
19
  3
ACAD_PLOTSTYLENAME
350
E
  3
AcDbVariableDictionary
350
5E
  0
DICTIONARY
  5
D
100
AcDbDictionary
280
0
281
1
  0
ACDBDICTIONARYWDFLT
  5
E
100
AcDbDictionary
281
1
  3
Normal
350
F
100
AcDbDictionaryWithDefault
340
F
  0
ACDBPLACEHOLDER
  5
F
  0
DICTIONARY
  5
17
100
AcDbDictionary
280
0
281
1
  3
Standard
350
18
  0
MLINESTYLE
  5
18
100
AcDbMlineStyle
  2
STANDARD
 70
0
  3

 62
256
 51
90.0
 52
90.0
 71
2
 49
0.5
 62
256
  6
BYLAYER
 49
-0.5
 62
256
  6
BYLAYER
  0
DICTIONARY
  5
19
100
AcDbDictionary
280
0
281
1
  0
DICTIONARY
  5
1A
100
AcDbDictionary
281
1
  3
Layout1
350
1E
  3
Layout2
350
26
  3
Model
350
22
  0
LAYOUT
  5
1E
100
AcDbPlotSettings
  1

  2
C:\Program Files\AutoCAD 2002\plotters\DWF ePlot (optimized for plotting).pc3
  4

  6

 40
0.0
 41
0.0
 42
0.0
 43
0.0
 44
0.0
 45
0.0
 46
0.0
 47
0.0
 48
0.0
 49
0.0
140
0.0
141
0.0
142
1.0
143
1.0
 70
688
 72
0
 73
0
 74
5
  7

 75
16
147
1.0
148
0.0
149
0.0
100
AcDbLayout
  1
Layout1
 70
1
 71
1
 10
0.0
 20
0.0
 11
420.0
 21
297.0
 12
0.0
 22
0.0
 32
0.0
 14
100000000000000000000.0
 24
100000000000000000000.0
 34
100000000000000000000.0
 15
-100000000000000000000.0
 25
-100000000000000000000.0
 35
-100000000000000000000.0
146
0.0
 13
0.0
 23
0.0
 33
0.0
 16
1.0
 26
0.0
 36
0.0
 17
0.0
 27
1.0
 37
0.0
 76
0
330
1B
  0
LAYOUT
  5
22
100
AcDbPlotSettings
  1

  2
C:\Program Files\AutoCAD 2002\plotters\DWF ePlot (optimized for plotting).pc3
  4

  6

 40
0.0
 41
0.0
 42
0.0
 43
0.0
 44
0.0
 45
0.0
 46
0.0
 47
0.0
 48
0.0
 49
0.0
140
0.0
141
0.0
142
1.0
143
1.0
 70
1712
 72
0
 73
0
 74
0
  7

 75
0
147
1.0
148
0.0
149
0.0
100
AcDbLayout
  1
Model
 70
1
 71
0
 10
0.0
 20
0.0
 11
12.0
 21
9.0
 12
0.0
 22
0.0
 32
0.0
 14
0.0
 24
0.0
 34
0.0
 15
0.0
 25
0.0
 35
0.0
146
0.0
 13
0.0
 23
0.0
 33
0.0
 16
1.0
 26
0.0
 36
0.0
 17
0.0
 27
1.0
 37
0.0
 76
0
330
1F
  0
LAYOUT
  5
26
100
AcDbPlotSettings
  1

  2
C:\Program Files\AutoCAD 2002\plotters\DWF ePlot (optimized for plotting).pc3
  4

  6

 40
0.0
 41
0.0
 42
0.0
 43
0.0
 44
0.0
 45
0.0
 46
0.0
 47
0.0
 48
0.0
 49
0.0
140
0.0
141
0.0
142
1.0
143
1.0
 70
688
 72
0
 73
0
 74
5
  7

 75
16
147
1.0
148
0.0
149
0.0
100
AcDbLayout
  1
Layout2
 70
1
 71
2
 10
0.0
 20
0.0
 11
12.0
 21
9.0
 12
0.0
 22
0.0
 32
0.0
 14
0.0
 24
0.0
 34
0.0
 15
0.0
 25
0.0
 35
0.0
146
0.0
 13
0.0
 23
0.0
 33
0.0
 16
1.0
 26
0.0
 36
0.0
 17
0.0
 27
1.0
 37
0.0
 76
0
330
23
  0
DICTIONARY
  5
5E
100
AcDbDictionary
281
1
  3
DIMASSOC
350
60
  3
HIDETEXT
350
5F
  0
DICTIONARYVAR
  5
5F
100
DictionaryVariables
280
0
  1
2
  0
DICTIONARYVAR
  5
60
100
DictionaryVariables
280
0
  1
1
  0
ENDSEC
  0
EOF
