999
dxflib 2.0.4.8
  0
SECTION
  2
HEADER
  9
$ACADVER
  1
AC1015
  9
$HANDSEED
  5
FFFF
  9
$DIMASZ
 40
10.0
  9
$GRIDUNIT
 10
0.0
 20
0.0
  9
$DIMADEC
 70
2
  9
$DIMGAP
 40
0.625
  9
$SPLINESEGS
 70
8
  9
$AUPREC
 70
2
  9
$LUNITS
 70
2
  9
$DIMEXO
 40
0.625
  9
$INSUNITS
 70
4
  9
$DIMLUNIT
 70
2
  9
$DIMTXT
 40
2.5
  9
$GRIDMODE
 70
1
  9
$LUPREC
 70
4
  9
$DIMSTYLE
  2
Standard
  9
$PLIMMAX
 10
210.0
 20
297.0
  9
$PLIMMIN
 10
0.0
 20
0.0
  9
$DIMEXE
 40
1.25
  9
$DIMAUNIT
 70
0
  9
$AUNITS
 70
0
  0
ENDSEC
  0
SECTION
  2
TABLES
  0
TABLE
  2
VPORT
  5
8
100
AcDbSymbolTable
 70
1
  0
VPORT
  5
30
100
AcDbSymbolTableRecord
100
AcDbViewportTableRecord
  2
*Active
 70
0
 10
0.0
 20
0.0
 11
1.0
 21
1.0
 12
286.3055555555554861
 22
148.5
 13
0.0
 23
0.0
 14
10.0
 24
10.0
 15
10.0
 25
10.0
 16
0.0
 26
0.0
 36
1.0
 17
0.0
 27
0.0
 37
0.0
 40
297.0
 41
1.92798353909465
 42
50.0
 43
0.0
 44
0.0
 50
0.0
 51
0.0
 71
0
 72
100
 73
1
 74
3
 75
1
 76
1
 77
0
 78
0
281
0
 65
1
110
0.0
120
0.0
130
0.0
111
1.0
121
0.0
131
0.0
112
0.0
122
1.0
132
0.0
 79
0
146
0.0
  0
ENDTAB
  0
TABLE
  2
LTYPE
  5
5
100
AcDbSymbolTable
 70
21
  0
LTYPE
  5
14
100
AcDbSymbolTableRecord
100
AcDbLinetypeTableRecord
  2
ByBlock
 70
0
  3

 72
65
 73
0
 40
0.0
  0
LTYPE
  5
15
100
AcDbSymbolTableRecord
100
AcDbLinetypeTableRecord
  2
ByLayer
 70
0
  3

 72
65
 73
0
 40
0.0
  0
LTYPE
  5
16
100
AcDbSymbolTableRecord
100
AcDbLinetypeTableRecord
  2
CONTINUOUS
 70
0
  3
Solid line
 72
65
 73
0
 40
0.0
  0
LTYPE
  5
31
100
AcDbSymbolTableRecord
100
AcDbLinetypeTableRecord
  2
DOT
 70
0
  3
Dot . . . . . . . . . . . . . . . . . . . . . .
 72
65
 73
2
 40
6.3499999999999996
 49
0.0
 74
0
 49
-6.3499999999999996
 74
0
  0
LTYPE
  5
32
100
AcDbSymbolTableRecord
100
AcDbLinetypeTableRecord
  2
DOT2
 70
0
  3
Dot (.5x) .....................................
 72
65
 73
2
 40
3.1749999999999998
 49
0.0
 74
0
 49
-3.1749999999999998
 74
0
  0
LTYPE
  5
33
100
AcDbSymbolTableRecord
100
AcDbLinetypeTableRecord
  2
DOTX2
 70
0
  3
Dot (2x) .  .  .  .  .  .  .  .  .  .  .  .  .
 72
65
 73
2
 40
12.6999999999999993
 49
0.0
 74
0
 49
-12.6999999999999993
 74
0
  0
LTYPE
  5
34
100
AcDbSymbolTableRecord
100
AcDbLinetypeTableRecord
  2
DASHED
 70
0
  3
Dashed __ __ __ __ __ __ __ __ __ __ __ __ __ _
 72
65
 73
2
 40
19.0500000000000007
 49
12.6999999999999993
 74
0
 49
-6.3499999999999996
 74
0
  0
LTYPE
  5
35
100
AcDbSymbolTableRecord
100
AcDbLinetypeTableRecord
  2
DASHED2
 70
0
  3
Dashed (.5x) _ _ _ _ _ _ _ _ _ _ _ _ _ _ _ _ _
 72
65
 73
2
 40
9.5250000000000004
 49
6.3499999999999996
 74
0
 49
-3.1749999999999998
 74
0
  0
LTYPE
  5
36
100
AcDbSymbolTableRecord
100
AcDbLinetypeTableRecord
  2
DASHEDX2
 70
0
  3
Dashed (2x) ____  ____  ____  ____  ____  ___
 72
65
 73
2
 40
38.1000000000000014
 49
25.3999999999999986
 74
0
 49
-12.6999999999999993
 74
0
  0
LTYPE
  5
37
100
AcDbSymbolTableRecord
100
AcDbLinetypeTableRecord
  2
DASHDOT
 70
0
  3
Dash dot __ . __ . __ . __ . __ . __ . __ . __
 72
65
 73
4
 40
25.3999999999999986
 49
12.6999999999999993
 74
0
 49
-6.3499999999999996
 74
0
 49
0.0
 74
0
 49
-6.3499999999999996
 74
0
  0
LTYPE
  5
38
100
AcDbSymbolTableRecord
100
AcDbLinetypeTableRecord
  2
DASHDOT2
 70
0
  3
Dash dot (.5x) _._._._._._._._._._._._._._._.
 72
65
 73
4
 40
12.6999999999999993
 49
6.3499999999999996
 74
0
 49
-3.1749999999999998
 74
0
 49
0.0
 74
0
 49
-3.1749999999999998
 74
0
  0
LTYPE
  5
39
100
AcDbSymbolTableRecord
100
AcDbLinetypeTableRecord
  2
DASHDOTX2
 70
0
  3
Dash dot (2x) ____  .  ____  .  ____  .  ___
 72
65
 73
4
 40
50.7999999999999972
 49
25.3999999999999986
 74
0
 49
-12.6999999999999993
 74
0
 49
0.0
 74
0
 49
-12.6999999999999993
 74
0
  0
LTYPE
  5
3A
100
AcDbSymbolTableRecord
100
AcDbLinetypeTableRecord
  2
DIVIDE
 70
0
  3
Divide ____ . . ____ . . ____ . . ____ . . ____
 72
65
 73
6
 40
31.75
 49
12.6999999999999993
 74
0
 49
-6.3499999999999996
 74
0
 49
0.0
 74
0
 49
-6.3499999999999996
 74
0
 49
0.0
 74
0
 49
-6.3499999999999996
 74
0
  0
LTYPE
  5
3B
100
AcDbSymbolTableRecord
100
AcDbLinetypeTableRecord
  2
DIVIDE2
 70
0
  3
Divide (.5x) __..__..__..__..__..__..__..__.._
 72
65
 73
6
 40
15.875
 49
6.3499999999999996
 74
0
 49
-3.1749999999999998
 74
0
 49
0.0
 74
0
 49
-3.1749999999999998
 74
0
 49
0.0
 74
0
 49
-3.1749999999999998
 74
0
  0
LTYPE
  5
3C
100
AcDbSymbolTableRecord
100
AcDbLinetypeTableRecord
  2
DIVIDEX2
 70
0
  3
Divide (2x) ________  .  .  ________  .  .  _
 72
65
 73
6
 40
63.5
 49
25.3999999999999986
 74
0
 49
-12.6999999999999993
 74
0
 49
0.0
 74
0
 49
-12.6999999999999993
 74
0
 49
0.0
 74
0
 49
-12.6999999999999993
 74
0
  0
LTYPE
  5
3D
100
AcDbSymbolTableRecord
100
AcDbLinetypeTableRecord
  2
CENTER
 70
0
  3
Center ____ _ ____ _ ____ _ ____ _ ____ _ ____
 72
65
 73
4
 40
50.7999999999999972
 49
31.75
 74
0
 49
-6.3499999999999996
 74
0
 49
6.3499999999999996
 74
0
 49
-6.3499999999999996
 74
0
  0
LTYPE
  5
3E
100
AcDbSymbolTableRecord
100
AcDbLinetypeTableRecord
  2
CENTER2
 70
0
  3
Center (.5x) ___ _ ___ _ ___ _ ___ _ ___ _ ___
 72
65
 73
4
 40
28.5749999999999993
 49
19.0500000000000007
 74
0
 49
-3.1749999999999998
 74
0
 49
3.1749999999999998
 74
0
 49
-3.1749999999999998
 74
0
  0
LTYPE
  5
3F
100
AcDbSymbolTableRecord
100
AcDbLinetypeTableRecord
  2
CENTERX2
 70
0
  3
Center (2x) ________  __  ________  __  _____
 72
65
 73
4
 40
101.5999999999999943
 49
63.5
 74
0
 49
-12.6999999999999993
 74
0
 49
12.6999999999999993
 74
0
 49
-12.6999999999999993
 74
0
  0
LTYPE
  5
40
100
AcDbSymbolTableRecord
100
AcDbLinetypeTableRecord
  2
BORDER
 70
0
  3
Border __ __ . __ __ . __ __ . __ __ . __ __ .
 72
65
 73
6
 40
44.4500000000000028
 49
12.6999999999999993
 74
0
 49
-6.3499999999999996
 74
0
 49
12.6999999999999993
 74
0
 49
-6.3499999999999996
 74
0
 49
0.0
 74
0
 49
-6.3499999999999996
 74
0
  0
LTYPE
  5
41
100
AcDbSymbolTableRecord
100
AcDbLinetypeTableRecord
  2
BORDER2
 70
0
  3
Border (.5x) __.__.__.__.__.__.__.__.__.__.__.
 72
65
 73
6
 40
22.2250000000000014
 49
6.3499999999999996
 74
0
 49
-3.1749999999999998
 74
0
 49
6.3499999999999996
 74
0
 49
-3.1749999999999998
 74
0
 49
0.0
 74
0
 49
-3.1749999999999998
 74
0
  0
LTYPE
  5
42
100
AcDbSymbolTableRecord
100
AcDbLinetypeTableRecord
  2
BORDERX2
 70
0
  3
Border (2x) ____  ____  .  ____  ____  .  ___
 72
65
 73
6
 40
88.9000000000000057
 49
25.3999999999999986
 74
0
 49
-12.6999999999999993
 74
0
 49
25.3999999999999986
 74
0
 49
-12.6999999999999993
 74
0
 49
0.0
 74
0
 49
-12.6999999999999993
 74
0
  0
ENDTAB
  0
TABLE
  2
LAYER
  5
2
100
AcDbSymbolTable
 70
2
  0
LAYER
  5
10
100
AcDbSymbolTableRecord
100
AcDbLayerTableRecord
  2
0
 70
1
 62
7
  6
CONTINUOUS
370
0
390
F
  0
LAYER
  5
43
100
AcDbSymbolTableRecord
100
AcDbLayerTableRecord
  2
noname
 70
0
 62
7
  6
CONTINUOUS
370
0
390
F
  0
ENDTAB
  0
TABLE
  2
STYLE
  5
3
100
AcDbSymbolTable
 70
1
  0
STYLE
  5
11
100
AcDbSymbolTableRecord
100
AcDbTextStyleTableRecord
  2
Standard
 70
0
 40
0.0
 41
0.75
 50
0.0
 71
0
 42
2.5
  3
txt
  4

  0
ENDTAB
  0
TABLE
  2
VIEW
  5
6
100
AcDbSymbolTable
 70
0
  0
ENDTAB
  0
TABLE
  2
UCS
  5
7
100
AcDbSymbolTable
 70
0
  0
ENDTAB
  0
TABLE
  2
APPID
  5
9
100
AcDbSymbolTable
 70
1
  0
APPID
  5
12
100
AcDbSymbolTableRecord
100
AcDbRegAppTableRecord
  2
ACAD
 70
0
  0
ENDTAB
  0
TABLE
  2
DIMSTYLE
  5
A
100
AcDbSymbolTable
 70
1
100
AcDbDimStyleTable
 71
0
  0
DIMSTYLE
105
27
100
AcDbSymbolTableRecord
100
AcDbDimStyleTableRecord
  2
Standard
 41
10.0
 42
0.625
 43
3.75
 44
1.25
 70
0
 73
0
 74
0
 77
1
 78
8
140
2.5
141
2.5
143
0.03937007874016
147
0.625
171
3
172
1
271
2
272
2
274
3
278
44
283
0
284
8
340
11
  0
ENDTAB
  0
TABLE
  2
BLOCK_RECORD
  5
1
100
AcDbSymbolTable
 70
1
  0
BLOCK_RECORD
  5
1F
100
AcDbSymbolTableRecord
100
AcDbBlockTableRecord
  2
*Model_Space
340
22
  0
BLOCK_RECORD
  5
1B
100
AcDbSymbolTableRecord
100
AcDbBlockTableRecord
  2
*Paper_Space
340
1E
  0
BLOCK_RECORD
  5
23
100
AcDbSymbolTableRecord
100
AcDbBlockTableRecord
  2
*Paper_Space0
340
26
  0
ENDTAB
  0
ENDSEC
  0
SECTION
  2
BLOCKS
  0
BLOCK
  5
20
100
AcDbEntity
  8
0
100
AcDbBlockBegin
  2
*Model_Space
 70
0
 10
0.0
 20
0.0
 30
0.0
  3
*Model_Space
  1

  0
ENDBLK
  5
21
100
AcDbEntity
  8
0
100
AcDbBlockEnd
  0
BLOCK
  5
1C
100
AcDbEntity
 67
1
  8
0
100
AcDbBlockBegin
  2
*Paper_Space
 70
0
 10
0.0
 20
0.0
 30
0.0
  3
*Paper_Space
  1

  0
ENDBLK
  5
1D
100
AcDbEntity
 67
1
  8
0
100
AcDbBlockEnd
  0
BLOCK
  5
24
100
AcDbEntity
  8
0
100
AcDbBlockBegin
  2
*Paper_Space0
 70
0
 10
0.0
 20
0.0
 30
0.0
  3
*Paper_Space0
  1

  0
ENDBLK
  5
25
100
AcDbEntity
  8
0
100
AcDbBlockEnd
  0
ENDSEC
  0
SECTION
  2
ENTITIES
  0
IMAGE
  5
44
  8
0
 62
256
370
50
  6
ByLayer
100
AcDbEntity
100
AcDbRasterImage
 90
0
 10
0.25
 20
-0.25
 30
0.0
 11
1.0
 21
0.0
 31
0.0
 12
0.0000000000000001
 22
1.0
 32
0.0
 13
308.0
 23
294.0
340
45
 70
15
280
0
281
50
282
50
283
0
  0
LINE
  5
46
100
AcDbEntity
100
AcDbLine
  8
noname
 62
256
370
100
  6
ByLayer
 10
153.1982421875
 20
137.939453125
 30
0.0
 11
153.1982421875
 21
17.08984375
 31
0.0
  0
LINE
  5
47
100
AcDbEntity
100
AcDbLine
  8
noname
 62
256
370
100
  6
ByLayer
 10
153.1982421875
 20
17.08984375
 30
0.0
 11
271.6064453125
 21
142.2119140625
 31
0.0
  0
SPLINE
  5
48
  8
noname
 62
256
370
100
  6
ByLayer
100
AcDbEntity
100
AcDbSpline
 70
8
 71
3
 72
305
 73
301
 74
0
 40
0.0
 40
0.0
 40
0.0
 40
0.0
 40
0.0033557046979866
 40
0.0067114093959732
 40
0.0100671140939597
 40
0.0134228187919463
 40
0.0167785234899329
 40
0.0201342281879195
 40
0.023489932885906
 40
0.0268456375838926
 40
0.0302013422818792
 40
0.0335570469798658
 40
0.0369127516778524
 40
0.0402684563758389
 40
0.0436241610738255
 40
0.0469798657718121
 40
0.0503355704697987
 40
0.0536912751677852
 40
0.0570469798657718
 40
0.0604026845637584
 40
0.063758389261745
 40
0.0671140939597315
 40
0.0704697986577181
 40
0.0738255033557047
 40
0.0771812080536913
 40
0.0805369127516778
 40
0.0838926174496644
 40
0.087248322147651
 40
0.0906040268456376
 40
0.0939597315436242
 40
0.0973154362416107
 40
0.1006711409395973
 40
0.1040268456375839
 40
0.1073825503355705
 40
0.1107382550335571
 40
0.1140939597315436
 40
0.1174496644295302
 40
0.1208053691275168
 40
0.1241610738255034
 40
0.1275167785234899
 40
0.1308724832214765
 40
0.1342281879194631
 40
0.1375838926174497
 40
0.1409395973154362
 40
0.1442953020134228
 40
0.1476510067114094
 40
0.151006711409396
 40
0.1543624161073825
 40
0.1577181208053691
 40
0.1610738255033557
 40
0.1644295302013423
 40
0.1677852348993289
 40
0.1711409395973154
 40
0.174496644295302
 40
0.1778523489932886
 40
0.1812080536912752
 40
0.1845637583892618
 40
0.1879194630872483
 40
0.1912751677852349
 40
0.1946308724832215
 40
0.197986577181208
 40
0.2013422818791946
 40
0.2046979865771812
 40
0.2080536912751678
 40
0.2114093959731544
 40
0.2147651006711409
 40
0.2181208053691275
 40
0.2214765100671141
 40
0.2248322147651007
 40
0.2281879194630873
 40
0.2315436241610738
 40
0.2348993288590604
 40
0.238255033557047
 40
0.2416107382550336
 40
0.2449664429530201
 40
0.2483221476510067
 40
0.2516778523489933
 40
0.2550335570469799
 40
0.2583892617449665
 40
0.261744966442953
 40
0.2651006711409396
 40
0.2684563758389262
 40
0.2718120805369127
 40
0.2751677852348993
 40
0.2785234899328859
 40
0.2818791946308725
 40
0.285234899328859
 40
0.2885906040268457
 40
0.2919463087248322
 40
0.2953020134228188
 40
0.2986577181208054
 40
0.302013422818792
 40
0.3053691275167785
 40
0.3087248322147651
 40
0.3120805369127517
 40
0.3154362416107382
 40
0.3187919463087248
 40
0.3221476510067114
 40
0.325503355704698
 40
0.3288590604026846
 40
0.3322147651006712
 40
0.3355704697986577
 40
0.3389261744966443
 40
0.3422818791946309
 40
0.3456375838926175
 40
0.348993288590604
 40
0.3523489932885906
 40
0.3557046979865772
 40
0.3590604026845637
 40
0.3624161073825503
 40
0.3657718120805369
 40
0.3691275167785235
 40
0.3724832214765101
 40
0.3758389261744967
 40
0.3791946308724832
 40
0.3825503355704698
 40
0.3859060402684564
 40
0.3892617449664429
 40
0.3926174496644295
 40
0.3959731543624161
 40
0.3993288590604027
 40
0.4026845637583892
 40
0.4060402684563759
 40
0.4093959731543624
 40
0.412751677852349
 40
0.4161073825503356
 40
0.4194630872483222
 40
0.4228187919463087
 40
0.4261744966442953
 40
0.4295302013422819
 40
0.4328859060402684
 40
0.436241610738255
 40
0.4395973154362416
 40
0.4429530201342282
 40
0.4463087248322148
 40
0.4496644295302014
 40
0.4530201342281879
 40
0.4563758389261745
 40
0.4597315436241611
 40
0.4630872483221476
 40
0.4664429530201342
 40
0.4697986577181208
 40
0.4731543624161074
 40
0.4765100671140939
 40
0.4798657718120805
 40
0.4832214765100671
 40
0.4865771812080537
 40
0.4899328859060403
 40
0.4932885906040269
 40
0.4966442953020134
 40
0.5
 40
0.5033557046979866
 40
0.5067114093959731
 40
0.5100671140939598
 40
0.5134228187919463
 40
0.5167785234899329
 40
0.5201342281879194
 40
0.5234899328859061
 40
0.5268456375838926
 40
0.5302013422818792
 40
0.5335570469798657
 40
0.5369127516778524
 40
0.540268456375839
 40
0.5436241610738255
 40
0.5469798657718121
 40
0.5503355704697986
 40
0.5536912751677853
 40
0.5570469798657718
 40
0.5604026845637584
 40
0.5637583892617449
 40
0.5671140939597316
 40
0.5704697986577181
 40
0.5738255033557047
 40
0.5771812080536913
 40
0.5805369127516778
 40
0.5838926174496645
 40
0.587248322147651
 40
0.5906040268456376
 40
0.5939597315436241
 40
0.5973154362416108
 40
0.6006711409395973
 40
0.6040268456375839
 40
0.6073825503355704
 40
0.6107382550335571
 40
0.6140939597315436
 40
0.6174496644295302
 40
0.6208053691275168
 40
0.6241610738255033
 40
0.62751677852349
 40
0.6308724832214765
 40
0.6342281879194631
 40
0.6375838926174496
 40
0.6409395973154363
 40
0.6442953020134228
 40
0.6476510067114094
 40
0.6510067114093959
 40
0.6543624161073825
 40
0.6577181208053692
 40
0.6610738255033557
 40
0.6644295302013423
 40
0.6677852348993288
 40
0.6711409395973155
 40
0.674496644295302
 40
0.6778523489932886
 40
0.6812080536912751
 40
0.6845637583892618
 40
0.6879194630872483
 40
0.6912751677852349
 40
0.6946308724832215
 40
0.697986577181208
 40
0.7013422818791947
 40
0.7046979865771812
 40
0.7080536912751678
 40
0.7114093959731543
 40
0.714765100671141
 40
0.7181208053691275
 40
0.7214765100671141
 40
0.7248322147651006
 40
0.7281879194630873
 40
0.7315436241610739
 40
0.7348993288590604
 40
0.738255033557047
 40
0.7416107382550335
 40
0.7449664429530202
 40
0.7483221476510067
 40
0.7516778523489933
 40
0.7550335570469798
 40
0.7583892617449665
 40
0.761744966442953
 40
0.7651006711409396
 40
0.7684563758389261
 40
0.7718120805369127
 40
0.7751677852348994
 40
0.7785234899328859
 40
0.7818791946308725
 40
0.785234899328859
 40
0.7885906040268457
 40
0.7919463087248322
 40
0.7953020134228188
 40
0.7986577181208053
 40
0.802013422818792
 40
0.8053691275167785
 40
0.8087248322147651
 40
0.8120805369127517
 40
0.8154362416107382
 40
0.8187919463087249
 40
0.8221476510067114
 40
0.825503355704698
 40
0.8288590604026845
 40
0.8322147651006712
 40
0.8355704697986577
 40
0.8389261744966443
 40
0.8422818791946308
 40
0.8456375838926175
 40
0.8489932885906041
 40
0.8523489932885906
 40
0.8557046979865772
 40
0.8590604026845637
 40
0.8624161073825504
 40
0.8657718120805369
 40
0.8691275167785235
 40
0.87248322147651
 40
0.8758389261744967
 40
0.8791946308724832
 40
0.8825503355704698
 40
0.8859060402684564
 40
0.8892617449664429
 40
0.8926174496644296
 40
0.8959731543624161
 40
0.8993288590604027
 40
0.9026845637583892
 40
0.9060402684563759
 40
0.9093959731543624
 40
0.912751677852349
 40
0.9161073825503355
 40
0.9194630872483222
 40
0.9228187919463087
 40
0.9261744966442953
 40
0.9295302013422819
 40
0.9328859060402684
 40
0.9362416107382551
 40
0.9395973154362416
 40
0.9429530201342282
 40
0.9463087248322147
 40
0.9496644295302014
 40
0.9530201342281879
 40
0.9563758389261745
 40
0.959731543624161
 40
0.9630872483221476
 40
0.9664429530201343
 40
0.9697986577181208
 40
0.9731543624161074
 40
0.9765100671140939
 40
0.9798657718120806
 40
0.9832214765100671
 40
0.9865771812080537
 40
0.9899328859060402
 40
0.9932885906040269
 40
0.9966442953020134
 40
1.0
 40
1.0
 40
1.0
 40
1.0
 10
153.25
 20
16.75
 30
0.0
 10
159.75
 20
16.75
 30
0.0
 10
166.5
 20
17.5
 30
0.0
 10
176.25
 20
18.25
 30
0.0
 10
189.25
 20
21.5
 30
0.0
 10
199.75
 20
25.0
 30
0.0
 10
207.0
 20
28.5
 30
0.0
 10
214.5
 20
33.5
 30
0.0
 10
223.75
 20
39.75
 30
0.0
 10
231.25
 20
45.0
 30
0.0
 10
238.25
 20
52.25
 30
0.0
 10
246.25
 20
61.5
 30
0.0
 10
253.25
 20
71.25
 30
0.0
 10
254.25
 20
73.25
 30
0.0
 10
261.5
 20
86.75
 30
0.0
 10
266.5
 20
100.75
 30
0.0
 10
268.75
 20
110.75
 30
0.0
 10
269.75
 20
118.0
 30
0.0
 10
271.0
 20
126.75
 30
0.0
 10
271.75
 20
137.75
 30
0.0
 10
271.75
 20
148.0
 30
0.0
 10
270.0
 20
157.5
 30
0.0
 10
267.75
 20
167.75
 30
0.0
 10
264.25
 20
177.75
 30
0.0
 10
261.0
 20
186.25
 30
0.0
 10
256.5
 20
194.75
 30
0.0
 10
252.25
 20
201.25
 30
0.0
 10
246.75
 20
208.75
 30
0.0
 10
242.75
 20
214.25
 30
0.0
 10
237.75
 20
219.0
 30
0.0
 10
234.5
 20
222.25
 30
0.0
 10
226.5
 20
228.75
 30
0.0
 10
220.25
 20
234.0
 30
0.0
 10
212.5
 20
239.0
 30
0.0
 10
204.0
 20
244.0
 30
0.0
 10
193.75
 20
247.5
 30
0.0
 10
185.25
 20
250.75
 30
0.0
 10
177.0
 20
252.75
 30
0.0
 10
166.5
 20
254.25
 30
0.0
 10
158.25
 20
254.75
 30
0.0
 10
150.75
 20
255.0
 30
0.0
 10
143.75
 20
254.5
 30
0.0
 10
131.75
 20
252.5
 30
0.0
 10
123.75
 20
250.5
 30
0.0
 10
115.0
 20
247.25
 30
0.0
 10
107.25
 20
244.0
 30
0.0
 10
99.75
 20
240.5
 30
0.0
 10
96.25
 20
237.0
 30
0.0
 10
90.25
 20
233.75
 30
0.0
 10
79.5
 20
224.25
 30
0.0
 10
69.5
 20
214.0
 30
0.0
 10
64.25
 20
207.0
 30
0.0
 10
59.0
 20
199.0
 30
0.0
 10
55.25
 20
191.25
 30
0.0
 10
51.25
 20
181.5
 30
0.0
 10
48.5
 20
171.0
 30
0.0
 10
47.5
 20
164.25
 30
0.0
 10
47.0
 20
157.0
 30
0.0
 10
47.0
 20
145.5
 30
0.0
 10
47.25
 20
135.0
 30
0.0
 10
48.75
 20
121.25
 30
0.0
 10
52.25
 20
111.25
 30
0.0
 10
55.5
 20
103.0
 30
0.0
 10
60.75
 20
95.5
 30
0.0
 10
66.75
 20
85.75
 30
0.0
 10
73.5
 20
78.75
 30
0.0
 10
79.25
 20
71.0
 30
0.0
 10
84.5
 20
66.75
 30
0.0
 10
90.5600000000000449
 20
62.0800000000000267
 30
0.0
 10
95.0400000000000347
 20
58.8800000000000239
 30
0.0
 10
101.4400000000000404
 20
55.2000000000000242
 30
0.0
 10
106.7200000000000415
 20
52.0000000000000213
 30
0.0
 10
113.6000000000000512
 20
49.2800000000000225
 30
0.0
 10
120.6400000000000574
 20
46.2400000000000162
 30
0.0
 10
127.0400000000000489
 20
44.4800000000000182
 30
0.0
 10
135.6800000000000637
 20
42.8800000000000168
 30
0.0
 10
142.7200000000000557
 20
42.4000000000000199
 30
0.0
 10
152.3200000000000784
 20
41.7600000000000193
 30
0.0
 10
161.280000000000058
 20
42.2400000000000162
 30
0.0
 10
169.6000000000000796
 20
43.680000000000021
 30
0.0
 10
180.8000000000000682
 20
45.7600000000000193
 30
0.0
 10
188.6400000000000716
 20
48.6400000000000219
 30
0.0
 10
197.440000000000083
 20
52.4800000000000253
 30
0.0
 10
205.2800000000000864
 20
56.9600000000000222
 30
0.0
 10
211.6800000000000921
 20
60.9600000000000293
 30
0.0
 10
217.440000000000083
 20
66.5600000000000307
 30
0.0
 10
221.600000000000108
 20
71.8400000000000318
 30
0.0
 10
225.600000000000108
 20
77.2800000000000296
 30
0.0
 10
229.4400000000001114
 20
81.120000000000033
 30
0.0
 10
232.6400000000001
 20
87.0400000000000347
 30
0.0
 10
237.1200000000000898
 20
95.840000000000046
 30
0.0
 10
239.6800000000000921
 20
101.1200000000000472
 30
0.0
 10
241.7600000000001046
 20
108.0000000000000426
 30
0.0
 10
243.5200000000000955
 20
114.4000000000000483
 30
0.0
 10
244.8000000000000966
 20
121.4400000000000546
 30
0.0
 10
246.4000000000000909
 20
131.2000000000000455
 30
0.0
 10
246.4000000000000909
 20
141.1200000000000614
 30
0.0
 10
246.0800000000000978
 20
148.1600000000000534
 30
0.0
 10
243.5200000000000955
 20
157.9200000000000728
 30
0.0
 10
241.9200000000001012
 20
165.1200000000000614
 30
0.0
 10
239.3600000000000989
 20
172.1600000000000819
 30
0.0
 10
238.4000000000000909
 20
175.0400000000000773
 30
0.0
 10
234.2400000000000944
 20
181.440000000000083
 30
0.0
 10
229.4400000000001114
 20
188.1600000000000819
 30
0.0
 10
224.3200000000001069
 20
195.5200000000000955
 30
0.0
 10
218.8800000000000807
 20
200.9600000000000932
 30
0.0
 10
213.1200000000000898
 20
205.9200000000001012
 30
0.0
 10
207.0400000000000773
 20
211.0400000000000773
 30
0.0
 10
199.0400000000000773
 20
215.3600000000000989
 30
0.0
 10
192.0000000000000853
 20
219.2000000000001023
 30
0.0
 10
184.9600000000000648
 20
222.5600000000000875
 30
0.0
 10
179.5200000000000671
 20
223.8400000000000887
 30
0.0
 10
170.2400000000000659
 20
226.2400000000000944
 30
0.0
 10
163.2000000000000739
 20
227.6800000000000921
 30
0.0
 10
155.0400000000000773
 20
227.8400000000000887
 30
0.0
 10
146.4000000000000625
 20
227.6800000000000921
 30
0.0
 10
137.7600000000000477
 20
227.2000000000001023
 30
0.0
 10
129.7600000000000477
 20
225.1200000000000898
 30
0.0
 10
122.7200000000000557
 20
223.2000000000001023
 30
0.0
 10
116.4800000000000466
 20
219.6800000000000921
 30
0.0
 10
108.6400000000000432
 20
216.0000000000000853
 30
0.0
 10
102.5600000000000449
 20
211.8400000000000887
 30
0.0
 10
96.9600000000000364
 20
206.7200000000000841
 30
0.0
 10
92.1600000000000392
 20
201.2800000000000864
 30
0.0
 10
87.3600000000000421
 20
197.1200000000000898
 30
0.0
 10
83.5200000000000387
 20
190.7200000000000841
 30
0.0
 10
77.7600000000000335
 20
182.0800000000000693
 30
0.0
 10
75.3600000000000279
 20
175.0400000000000773
 30
0.0
 10
72.9600000000000364
 20
168.1600000000000819
 30
0.0
 10
71.6800000000000352
 20
162.0800000000000693
 30
0.0
 10
71.0400000000000347
 20
156.9600000000000648
 30
0.0
 10
71.0400000000000347
 20
151.3600000000000705
 30
0.0
 10
71.0400000000000347
 20
143.0400000000000489
 30
0.0
 10
71.3600000000000279
 20
134.2400000000000659
 30
0.0
 10
72.0000000000000284
 20
128.0000000000000568
 30
0.0
 10
73.2800000000000296
 20
122.0800000000000551
 30
0.0
 10
76.1600000000000392
 20
114.5600000000000449
 30
0.0
 10
78.5600000000000307
 20
108.9600000000000506
 30
0.0
 10
81.2800000000000296
 20
104.6400000000000432
 30
0.0
 10
84.9600000000000364
 20
96.8000000000000398
 30
0.0
 10
90.4000000000000341
 20
91.6800000000000352
 30
0.0
 10
94.8800000000000381
 20
86.7200000000000415
 30
0.0
 10
99.6800000000000495
 20
82.8800000000000381
 30
0.0
 10
105.4400000000000404
 20
77.9200000000000301
 30
0.0
 10
111.5200000000000529
 20
73.7600000000000335
 30
0.0
 10
117.6000000000000512
 20
70.7200000000000273
 30
0.0
 10
125.1200000000000472
 20
67.8400000000000318
 30
0.0
 10
133.6000000000000512
 20
65.120000000000033
 30
0.0
 10
145.9200000000000728
 20
63.5200000000000244
 30
0.0
 10
150.5600000000000591
 20
63.6800000000000281
 30
0.0
 10
157.280000000000058
 20
63.8400000000000247
 30
0.0
 10
164.9600000000000648
 20
64.8000000000000256
 30
0.0
 10
173.440000000000083
 20
66.5600000000000307
 30
0.0
 10
182.0800000000000693
 20
69.9200000000000301
 30
0.0
 10
191.0400000000000773
 20
74.2400000000000375
 30
0.0
 10
199.5200000000000955
 20
80.0000000000000284
 30
0.0
 10
206.7200000000000841
 20
86.8800000000000381
 30
0.0
 10
211.8400000000000887
 20
92.9600000000000364
 30
0.0
 10
217.7600000000001046
 20
102.7200000000000415
 30
0.0
 10
221.440000000000083
 20
112.32000000000005
 30
0.0
 10
224.0000000000000853
 20
120.4800000000000466
 30
0.0
 10
224.9600000000000932
 20
130.0800000000000693
 30
0.0
 10
226.0800000000000978
 20
138.8800000000000523
 30
0.0
 10
224.8000000000000966
 20
148.32000000000005
 30
0.0
 10
223.8400000000000887
 20
154.8800000000000523
 30
0.0
 10
221.9200000000001012
 20
161.440000000000083
 30
0.0
 10
218.8800000000000807
 20
168.480000000000075
 30
0.0
 10
214.2400000000000944
 20
176.3200000000000784
 30
0.0
 10
209.6000000000000796
 20
181.7600000000000762
 30
0.0
 10
199.8400000000000887
 20
192.480000000000075
 30
0.0
 10
192.9600000000000932
 20
196.8000000000000966
 30
0.0
 10
186.4000000000000909
 20
200.9600000000000932
 30
0.0
 10
179.0400000000000773
 20
204.3200000000000784
 30
0.0
 10
174.8800000000000807
 20
205.440000000000083
 30
0.0
 10
168.9600000000000648
 20
207.0400000000000773
 30
0.0
 10
162.5600000000000591
 20
207.6800000000000921
 30
0.0
 10
155.2000000000000739
 20
208.8000000000000966
 30
0.0
 10
146.5600000000000591
 20
207.8400000000000887
 30
0.0
 10
140.4800000000000466
 20
207.8400000000000887
 30
0.0
 10
134.7200000000000557
 20
206.0800000000000978
 30
0.0
 10
127.3600000000000563
 20
203.2000000000000739
 30
0.0
 10
122.4000000000000483
 20
201.2800000000000864
 30
0.0
 10
116.1600000000000534
 20
196.8000000000000966
 30
0.0
 10
111.3600000000000421
 20
193.2800000000000864
 30
0.0
 10
107.0400000000000489
 20
190.2400000000000944
 30
0.0
 10
104.1600000000000392
 20
186.4000000000000909
 30
0.0
 10
101.2800000000000438
 20
181.7600000000000762
 30
0.0
 10
98.5600000000000449
 20
177.9200000000000728
 30
0.0
 10
95.2000000000000455
 20
172.3200000000000784
 30
0.0
 10
93.7600000000000335
 20
168.1600000000000819
 30
0.0
 10
91.3600000000000421
 20
160.480000000000075
 30
0.0
 10
89.7600000000000335
 20
152.8000000000000682
 30
0.0
 10
89.2800000000000438
 20
144.0000000000000568
 30
0.0
 10
89.6000000000000369
 20
137.6000000000000512
 30
0.0
 10
90.8800000000000381
 20
131.2000000000000455
 30
0.0
 10
93.2800000000000438
 20
122.8800000000000523
 30
0.0
 10
96.3200000000000358
 20
116.1600000000000534
 30
0.0
 10
99.3600000000000421
 20
111.5200000000000529
 30
0.0
 10
101.6000000000000369
 20
107.0400000000000489
 30
0.0
 10
104.6400000000000432
 20
104.0000000000000426
 30
0.0
 10
109.7600000000000477
 20
99.2000000000000455
 30
0.0
 10
114.2400000000000517
 20
95.5200000000000387
 30
0.0
 10
118.5600000000000449
 20
92.3200000000000358
 30
0.0
 10
124.0000000000000568
 20
89.6000000000000369
 30
0.0
 10
128.8000000000000682
 20
87.0400000000000347
 30
0.0
 10
134.0800000000000693
 20
85.6000000000000369
 30
0.0
 10
139.5200000000000671
 20
83.8400000000000318
 30
0.0
 10
145.7600000000000762
 20
82.5600000000000307
 30
0.0
 10
152.3200000000000784
 20
82.4000000000000341
 30
0.0
 10
156.0000000000000568
 20
82.4000000000000341
 30
0.0
 10
166.8800000000000807
 20
83.8400000000000318
 30
0.0
 10
172.8000000000000682
 20
86.2400000000000375
 30
0.0
 10
181.7600000000000762
 20
89.9200000000000443
 30
0.0
 10
188.9600000000000932
 20
95.6800000000000352
 30
0.0
 10
195.3600000000000705
 20
101.2800000000000438
 30
0.0
 10
199.2000000000000739
 20
107.0400000000000489
 30
0.0
 10
203.3600000000000989
 20
116.4800000000000466
 30
0.0
 10
205.7600000000000762
 20
124.9600000000000506
 30
0.0
 10
207.6800000000000921
 20
132.0000000000000568
 30
0.0
 10
207.5200000000000955
 20
138.0800000000000693
 30
0.0
 10
206.4000000000000909
 20
149.280000000000058
 30
0.0
 10
203.5200000000000955
 20
157.6000000000000796
 30
0.0
 10
199.2000000000000739
 20
165.7600000000000762
 30
0.0
 10
195.3600000000000705
 20
170.4000000000000625
 30
0.0
 10
192.1600000000000819
 20
173.7600000000000762
 30
0.0
 10
188.3200000000000784
 20
176.9600000000000648
 30
0.0
 10
185.1200000000000898
 20
180.6400000000000716
 30
0.0
 10
180.6400000000000716
 20
182.8800000000000807
 30
0.0
 10
176.9600000000000648
 20
184.6400000000000716
 30
0.0
 10
170.7200000000000841
 20
187.3600000000000705
 30
0.0
 10
161.6000000000000796
 20
189.2800000000000864
 30
0.0
 10
152.0000000000000568
 20
189.6000000000000796
 30
0.0
 10
145.9200000000000728
 20
189.440000000000083
 30
0.0
 10
140.9600000000000648
 20
188.3200000000000784
 30
0.0
 10
135.2000000000000455
 20
186.7200000000000841
 30
0.0
 10
129.6000000000000512
 20
184.3200000000000784
 30
0.0
 10
123.840000000000046
 20
179.8400000000000887
 30
0.0
 10
119.2000000000000455
 20
175.2000000000000739
 30
0.0
 10
115.0400000000000489
 20
170.2400000000000659
 30
0.0
 10
112.32000000000005
 20
165.1200000000000614
 30
0.0
 10
108.4800000000000466
 20
158.5600000000000591
 30
0.0
 10
107.5200000000000529
 20
151.5200000000000671
 30
0.0
 10
107.0400000000000489
 20
145.4400000000000546
 30
0.0
 10
106.8800000000000523
 20
141.1200000000000614
 30
0.0
 10
106.8800000000000523
 20
137.280000000000058
 30
0.0
 10
108.0000000000000426
 20
129.6000000000000512
 30
0.0
 10
110.8800000000000523
 20
122.8800000000000523
 30
0.0
 10
113.1200000000000472
 20
118.4000000000000483
 30
0.0
 10
115.6800000000000495
 20
115.840000000000046
 30
0.0
 10
118.7200000000000557
 20
111.5200000000000529
 30
0.0
 10
122.4000000000000483
 20
108.32000000000005
 30
0.0
 10
126.0800000000000551
 20
105.6000000000000512
 30
0.0
 10
131.2000000000000455
 20
102.8800000000000381
 30
0.0
 10
134.5600000000000591
 20
100.6400000000000432
 30
0.0
 10
138.7200000000000557
 20
99.3600000000000421
 30
0.0
 10
145.1200000000000614
 20
97.6000000000000369
 30
0.0
 10
151.2000000000000739
 20
97.2800000000000438
 30
0.0
 10
157.6000000000000796
 20
96.8000000000000398
 30
0.0
 10
161.6000000000000796
 20
97.6000000000000369
 30
0.0
 10
167.3600000000000705
 20
99.2000000000000455
 30
0.0
 10
173.7600000000000762
 20
101.6000000000000369
 30
0.0
 10
178.4000000000000625
 20
105.2800000000000438
 30
0.0
 10
182.2400000000000659
 20
109.2800000000000438
 30
0.0
 10
185.6000000000000796
 20
113.7600000000000477
 30
0.0
 10
187.8400000000000887
 20
117.4400000000000546
 30
0.0
 10
190.7200000000000841
 20
123.0400000000000489
 30
0.0
 10
192.1600000000000819
 20
127.6800000000000495
 30
0.0
 10
192.9600000000000932
 20
131.2000000000000455
 30
0.0
 10
193.1200000000000898
 20
136.9600000000000648
 30
0.0
 10
193.1200000000000898
 20
142.2400000000000659
 30
0.0
 10
191.8400000000000887
 20
148.9600000000000648
 30
0.0
 10
189.9200000000000728
 20
153.9200000000000728
 30
0.0
 10
187.0400000000000773
 20
158.8800000000000807
 30
0.0
 10
182.4000000000000909
 20
163.5200000000000671
 30
0.0
 10
176.6400000000000716
 20
168.3200000000000784
 30
0.0
 10
171.8400000000000603
 20
171.8400000000000603
 30
0.0
 10
168.480000000000075
 20
172.9600000000000648
 30
0.0
 10
165.1200000000000614
 20
174.2400000000000659
 30
0.0
 10
160.6400000000000716
 20
175.2000000000000739
 30
0.0
 10
153.280000000000058
 20
175.2000000000000739
 30
0.0
 10
147.6800000000000637
 20
175.2000000000000739
 30
0.0
 10
143.2000000000000739
 20
174.4000000000000625
 30
0.0
 10
138.4000000000000625
 20
172.480000000000075
 30
0.0
 10
134.5600000000000591
 20
170.2400000000000659
 30
0.0
 10
130.0800000000000693
 20
167.2000000000000739
 30
0.0
 10
127.3600000000000563
 20
163.6800000000000637
 30
0.0
 10
124.9600000000000506
 20
159.3600000000000705
 30
0.0
 10
122.2400000000000517
 20
153.6000000000000796
 30
0.0
 10
121.1200000000000472
 20
148.0000000000000568
 30
0.0
 10
121.1200000000000472
 20
142.2400000000000659
 30
0.0
 10
121.280000000000058
 20
137.7600000000000477
 30
0.0
 10
122.0800000000000551
 20
132.9600000000000648
 30
0.0
 10
123.6800000000000495
 20
128.6400000000000432
 30
0.0
 10
126.0800000000000551
 20
125.1200000000000472
 30
0.0
 10
128.9600000000000648
 20
121.9200000000000585
 30
0.0
 10
131.3600000000000421
 20
119.0400000000000489
 30
0.0
 10
137.1200000000000614
 20
115.6800000000000495
 30
0.0
 10
142.0800000000000693
 20
112.800000000000054
 30
0.0
 10
146.5600000000000591
 20
111.840000000000046
 30
0.0
 10
152.0000000000000568
 20
111.840000000000046
 30
0.0
 10
153.1200000000000614
 20
111.5200000000000529
 30
0.0
  0
LINE
  5
49
100
AcDbEntity
100
AcDbLine
  8
noname
 62
256
370
100
  6
ByLayer
 10
153.1982421875001137
 20
17.7001953125000142
 30
0.0
 11
153.541564941406449
 21
274.6582031250003411
 31
0.0
  0
LINE
  5
4A
100
AcDbEntity
100
AcDbLine
  8
noname
 62
256
370
100
  6
ByLayer
 10
37.2314453125000284
 20
17.0898437500000178
 30
0.0
 11
288.9633178710941479
 21
17.1661376953125213
 31
0.0
  0
MTEXT
  5
4B
100
AcDbEntity
100
AcDbMText
  8
noname
 62
256
370
100
  6
ByLayer
 10
166.8930053710939774
 20
125.169754028320483
 30
0.0
 40
14.0
 41
100.0
 71
5
 72
2
  1
Io
  7
normal
 50
0.0
 73
0
 44
1.0
  0
MTEXT
  5
4C
100
AcDbEntity
100
AcDbMText
  8
noname
 62
256
370
100
  6
ByLayer
 10
280.1418304443363354
 20
30.9944152832031676
 30
0.0
 40
14.0
 41
100.0
 71
5
 72
2
  1
Re\~A
  7
normal
 50
0.0
 73
0
 44
1.0
  0
MTEXT
  5
4D
100
AcDbEntity
100
AcDbMText
  8
noname
 62
256
370
100
  6
ByLayer
 10
170.4692840576174149
 20
270.6050872802738354
 30
0.0
 40
14.0
 41
100.0
 71
5
 72
2
  1
Im\~A
  7
normal
 50
0.0
 73
0
 44
1.0
  0
LEADER
  5
4E
  8
noname
 62
256
370
100
  6
ByLayer
100
AcDbEntity
100
AcDbLeader
  3
Standard
 71
1
 72
0
 73
3
 74
0
 75
0
 40
1.0
 41
10.0
 76
2
 10
153.1982421875
 20
17.08984375
 10
153.1200000000000614
 20
111.5200000000000529
  0
LINE
  5
4F
100
AcDbEntity
100
AcDbLine
  8
noname
 62
256
370
200
  6
ByLayer
 10
153.1982421875
 20
137.939453125
 30
0.0
 11
153.1982421875
 21
17.7001953125
 31
0.0
  0
LEADER
  5
50
  8
noname
 62
256
370
100
  6
ByLayer
100
AcDbEntity
100
AcDbLeader
  3
Standard
 71
1
 72
0
 73
3
 74
0
 75
0
 40
1.0
 41
10.0
 76
2
 10
153.1982421875
 20
137.939453125
 10
153.1210077718243099
 20
110.3037245625427687
  0
ENDSEC
  0
SECTION
  2
OBJECTS
  0
DICTIONARY
  5
C
100
AcDbDictionary
280
0
281
1
  3
ACAD_GROUP
350
D
  3
ACAD_LAYOUT
350
1A
  3
ACAD_MLINESTYLE
350
17
  3
ACAD_PLOTSETTINGS
350
19
  3
ACAD_PLOTSTYLENAME
350
E
  3
AcDbVariableDictionary
350
51
  0
DICTIONARY
  5
D
100
AcDbDictionary
280
0
281
1
  0
ACDBDICTIONARYWDFLT
  5
E
100
AcDbDictionary
281
1
  3
Normal
350
F
100
AcDbDictionaryWithDefault
340
F
  0
ACDBPLACEHOLDER
  5
F
  0
DICTIONARY
  5
17
100
AcDbDictionary
280
0
281
1
  3
Standard
350
18
  0
MLINESTYLE
  5
18
100
AcDbMlineStyle
  2
STANDARD
 70
0
  3

 62
256
 51
90.0
 52
90.0
 71
2
 49
0.5
 62
256
  6
BYLAYER
 49
-0.5
 62
256
  6
BYLAYER
  0
DICTIONARY
  5
19
100
AcDbDictionary
280
0
281
1
  0
DICTIONARY
  5
1A
100
AcDbDictionary
281
1
  3
Layout1
350
1E
  3
Layout2
350
26
  3
Model
350
22
  0
LAYOUT
  5
1E
100
AcDbPlotSettings
  1

  2
C:\Program Files\AutoCAD 2002\plotters\DWF ePlot (optimized for plotting).pc3
  4

  6

 40
0.0
 41
0.0
 42
0.0
 43
0.0
 44
0.0
 45
0.0
 46
0.0
 47
0.0
 48
0.0
 49
0.0
140
0.0
141
0.0
142
1.0
143
1.0
 70
688
 72
0
 73
0
 74
5
  7

 75
16
147
1.0
148
0.0
149
0.0
100
AcDbLayout
  1
Layout1
 70
1
 71
1
 10
0.0
 20
0.0
 11
420.0
 21
297.0
 12
0.0
 22
0.0
 32
0.0
 14
100000000000000000000.0
 24
100000000000000000000.0
 34
100000000000000000000.0
 15
-100000000000000000000.0
 25
-100000000000000000000.0
 35
-100000000000000000000.0
146
0.0
 13
0.0
 23
0.0
 33
0.0
 16
1.0
 26
0.0
 36
0.0
 17
0.0
 27
1.0
 37
0.0
 76
0
330
1B
  0
LAYOUT
  5
22
100
AcDbPlotSettings
  1

  2
C:\Program Files\AutoCAD 2002\plotters\DWF ePlot (optimized for plotting).pc3
  4

  6

 40
0.0
 41
0.0
 42
0.0
 43
0.0
 44
0.0
 45
0.0
 46
0.0
 47
0.0
 48
0.0
 49
0.0
140
0.0
141
0.0
142
1.0
143
1.0
 70
1712
 72
0
 73
0
 74
0
  7

 75
0
147
1.0
148
0.0
149
0.0
100
AcDbLayout
  1
Model
 70
1
 71
0
 10
0.0
 20
0.0
 11
12.0
 21
9.0
 12
0.0
 22
0.0
 32
0.0
 14
0.0
 24
0.0
 34
0.0
 15
0.0
 25
0.0
 35
0.0
146
0.0
 13
0.0
 23
0.0
 33
0.0
 16
1.0
 26
0.0
 36
0.0
 17
0.0
 27
1.0
 37
0.0
 76
0
330
1F
  0
LAYOUT
  5
26
100
AcDbPlotSettings
  1

  2
C:\Program Files\AutoCAD 2002\plotters\DWF ePlot (optimized for plotting).pc3
  4

  6

 40
0.0
 41
0.0
 42
0.0
 43
0.0
 44
0.0
 45
0.0
 46
0.0
 47
0.0
 48
0.0
 49
0.0
140
0.0
141
0.0
142
1.0
143
1.0
 70
688
 72
0
 73
0
 74
5
  7

 75
16
147
1.0
148
0.0
149
0.0
100
AcDbLayout
  1
Layout2
 70
1
 71
2
 10
0.0
 20
0.0
 11
12.0
 21
9.0
 12
0.0
 22
0.0
 32
0.0
 14
0.0
 24
0.0
 34
0.0
 15
0.0
 25
0.0
 35
0.0
146
0.0
 13
0.0
 23
0.0
 33
0.0
 16
1.0
 26
0.0
 36
0.0
 17
0.0
 27
1.0
 37
0.0
 76
0
330
23
  0
DICTIONARY
  5
51
100
AcDbDictionary
281
1
  3
DIMASSOC
350
53
  3
HIDETEXT
350
52
  0
DICTIONARYVAR
  5
52
100
DictionaryVariables
280
0
  1
2
  0
DICTIONARYVAR
  5
53
100
DictionaryVariables
280
0
  1
1
  0
IMAGEDEF
  5
45
100
AcDbRasterImageDef
 90
0
  1
/Data/documents/TeX/Posobie_Phisics/qcad/22222.jpeg
 10
308.0
 20
294.0
 11
1.0
 21
1.0
280
1
281
0
  0
ENDSEC
  0
EOF
